<?xml version="1.0" encoding="utf-8"?>
<!-- Generator: Adobe Illustrator 16.0.0, SVG Export Plug-In . SVG Version: 6.00 Build 0)  -->
<!DOCTYPE svg PUBLIC "-//W3C//DTD SVG 1.1//EN" "http://www.w3.org/Graphics/SVG/1.1/DTD/svg11.dtd">
<svg version="1.1" id="图层_1" xmlns="http://www.w3.org/2000/svg" xmlns:xlink="http://www.w3.org/1999/xlink" x="0px" y="0px"
	 width="68px" height="68px" viewBox="0 0 68 68" enable-background="new 0 0 68 68" xml:space="preserve">
<g>
	<g>
		<g>
			<g>
				<path d="M60,13.5v36H8v-36 M6,11.5v40h56v-40H6z"/>
				<path d="M64,51.5v2l-4,2H8l-4-1.949V51.5 M2,49.5v5.229L8,57.5h52l6-3v-5H2z"/>
			</g>
		</g>
	</g>
	<g>
		<path d="M40.732,32.984c0.499,0,0.998,0,0.998-0.599v-3.193c0-0.898-0.1-1.297-0.699-1.297h-0.299V32.984z M43.526,32.186
			c-0.1,1.197-1.098,2.395-2.295,2.395h-0.598v6.385h-1.995V26.2h2.593c1.397,0,2.195,1.098,2.295,2.195V32.186z"/>
		<path d="M47.217,34.78c-0.599,0.299-1.097,0.699-1.097,1.297v3.093c0,0.299,0.2,0.399,0.499,0.399c0.299,0,0.599-0.2,0.599-0.499
			V34.78z M49.113,41.065h-1.796c-0.1-0.299-0.1-0.499-0.1-0.798h-0.1c-0.399,0.699-0.798,0.998-1.497,0.998
			c-0.898,0-1.297-0.499-1.297-1.396v-3.991c0-2.295,2.893-1.197,2.893-4.19c0-0.398,0.1-1.297-0.499-1.297
			s-0.499,0.799-0.599,1.297v1.696h-1.896v-2.295c0-1.297,0.898-1.995,2.494-1.995c1.497,0,2.395,0.798,2.395,1.995V41.065z"/>
		<path d="M52.007,38.771c0,0.599,0.199,0.699,0.499,0.699s0.599-0.1,0.599-0.699v-7.482c0-0.599-0.299-0.699-0.599-0.699
			s-0.499,0.199-0.499,0.699V38.771z M55,40.966h-1.896v-0.699h-0.1c-0.299,0.399-0.898,0.898-1.396,0.898
			c-0.798,0-1.497-0.399-1.397-1.397v-9.478c0-0.898,0.698-1.297,1.397-1.297c0.599,0,1.197,0.398,1.497,0.897l0,0V26.2H55V40.966z"
			/>
		<polygon points="11.5,26.399 11.5,28.195 13.496,28.195 13.496,41.166 15.491,41.166 15.491,28.195 17.386,28.195 17.386,26.399 
					"/>
		<path d="M26.166,27.297c0,0.698-0.598,1.197-1.197,1.197c-0.699,0-1.197-0.599-1.197-1.197c0-0.698,0.599-1.197,1.197-1.197
			S26.166,26.599,26.166,27.297"/>
		<path d="M19.881,29.991L19.881,29.991c0.399-0.599,0.998-0.897,1.496-0.897c1.297,0,1.497,0.698,1.497,1.896v10.076h-1.796v-9.678
			c0-0.398-0.1-0.698-0.599-0.698c-0.499,0-0.598,0.399-0.598,0.698v9.778h-1.796V26.3h1.896v3.691H19.881z"/>
		<rect x="23.971" y="29.293" width="1.896" height="11.873"/>
		<path d="M26.964,29.293h1.896v0.698h0.1c0.299-0.499,0.897-0.798,1.396-0.798c1.496,0,1.496,0.898,1.496,2.096v9.977h-1.895
			v-9.678c0-0.398-0.1-0.799-0.599-0.799c-0.599,0-0.698,0.5-0.698,0.799v9.678h-1.796V29.293H26.964z"/>
		<polygon points="32.951,26.3 32.951,41.166 34.746,41.166 34.746,34.88 34.946,34.88 36.043,41.166 38.039,41.166 36.742,34.68 
			37.939,29.293 36.043,29.293 34.946,34.78 34.746,34.78 34.746,26.3 		"/>
	</g>
</g>
</svg>
