<?xml version="1.0" encoding="UTF-8"?>
<svg id="_图层_1" data-name="图层 1" xmlns="http://www.w3.org/2000/svg" version="1.1" viewBox="0 0 64 64">
  <defs>
    <style>
      .cls-1 {
        fill: #000;
        stroke-width: 0px;
      }
    </style>
  </defs>
  <path class="cls-1" d="M60,19.5v-2h-5v-8.5h-8.5v-5h-2v5h-7v-5h-2v5h-7v-5h-2v5h-7v-5h-2v5h-8.5v8.5h-5v2h5v7h-5v2h5v7h-5v2h5v7h-5v2h5v8.5h8.5v5h2v-5h7v5h2v-5h7v5h2v-5h7v5h2v-5h8.5v-8.5h5v-2h-5v-7h5v-2h-5v-7h5v-2h-5v-7h5ZM53,53H11V11h42v42Z"/>
  <g>
    <path class="cls-1" d="M37.8,43h-2.1c-.2,0-.4,0-.6-.2s-.3-.3-.3-.5l-1.9-4.8h-9.1l-1.9,4.8c0,.2-.2.3-.3.4-.2.1-.4.2-.6.2h-2.1l8.1-20h2.8l8.1,20ZM32.1,35.6l-3.2-8.2c0-.2-.2-.5-.3-.8-.1-.3-.2-.7-.3-1-.2.8-.4,1.4-.6,1.9l-3.2,8.1h7.5Z"/>
    <path class="cls-1" d="M43.2,43h-2.7v-20h2.7v20Z"/>
  </g>
</svg>