<?xml version="1.0" encoding="utf-8"?>
<!-- Generator: Adobe Illustrator 16.0.0, SVG Export Plug-In . SVG Version: 6.00 Build 0)  -->
<!DOCTYPE svg PUBLIC "-//W3C//DTD SVG 1.1//EN" "http://www.w3.org/Graphics/SVG/1.1/DTD/svg11.dtd">
<svg version="1.1" id="图层_1" xmlns="http://www.w3.org/2000/svg" xmlns:xlink="http://www.w3.org/1999/xlink" x="0px" y="0px"
	 width="68px" height="68px" viewBox="0 0 68 68" enable-background="new 0 0 68 68" xml:space="preserve">
<path d="M35.281,9L2,25.767l4,1.951v13.899c-1.15,0.328-2,1.378-2,2.633C4,45.768,5.233,47,6.75,47s2.75-1.232,2.75-2.75
	c0-1.064-0.613-1.979-1.5-2.436V28.693l5,2.439v20.822l0.343,0.299c0.349,0.304,8.464,7.263,20.656,7.263
	c0.341,0,0.687-0.005,1.033-0.017c12.829-0.413,19.472-8.528,19.748-8.875L55,50.352V31.408L66,25.5L35.281,9z M6.75,45
	C6.337,45,6,44.664,6,44.25s0.337-0.75,0.75-0.75s0.75,0.336,0.75,0.75S7.163,45,6.75,45z M53,49.626
	c-1.212,1.337-7.389,7.532-18.032,7.875C24.343,57.842,16.68,52.336,15,51.023V32.108L35.281,42L53,32.483V49.626z M35.236,39.753
	L6.503,25.738l28.749-14.484L61.773,25.5L35.236,39.753z"/>
</svg>
