<svg xmlns="http://www.w3.org/2000/svg" width="32" height="32"><path fill="#555" d="M27.08 7.546h-1.154c.288-.692.346-1.443 0-2.135-.404-.866-1.212-1.385-2.078-1.385-.346 0-.635.058-.981.173 0-.231 0-.462-.058-.692-.288-1.5-1.443-2.481-3.001-2.481-1.212 0-2.366.635-3.058 1.558-.288.404-.519.923-.75 1.5a5.225 5.225 0 0 0-.75-1.5c-.693-.981-1.847-1.558-3.059-1.558-1.558 0-2.712.981-3.001 2.481-.058.231-.058.462-.058.693a2.707 2.707 0 0 0-.981-.173c-.923 0-1.731.519-2.078 1.385a2.746 2.746 0 0 0 0 2.135H4.919a2.462 2.462 0 0 0-2.481 2.481v5.54c0 .462.404.866.866.866h.866v12.061a2.462 2.462 0 0 0 2.481 2.481h18.697a2.462 2.462 0 0 0 2.481-2.481V16.434h.866a.888.888 0 0 0 .866-.866v-5.54a2.462 2.462 0 0 0-2.481-2.481zM23.387 5.93c.173-.115.288-.115.462-.115.288 0 .462.288.519.346.058.115.173.519-.173.923-.173.231-.404.346-.635.519h-2.481c.692-.635 1.558-1.269 2.308-1.673zM10.922 3.853c.173-.923.866-1.039 1.27-1.039.635 0 1.27.346 1.616.866.635.866.981 2.655 1.154 3.924h-.173c-1.096-.346-2.539-.981-3.347-1.962-.462-.635-.635-1.212-.519-1.789zM7.69 6.103c.058-.058.173-.346.519-.346.115 0 .289.058.462.115.75.462 1.616 1.096 2.308 1.616H8.44a1.795 1.795 0 0 1-.635-.519c-.346-.346-.173-.75-.115-.866zm4.328 23.141H6.651a.763.763 0 0 1-.75-.75V16.433h6.117v12.811zm0-14.542H4.17v-4.674c0-.404.346-.75.75-.75h7.098v5.425zm6.233 14.542H13.75V9.508h4.501v19.736zM17.212 7.546h-.173c.173-1.269.519-3.001 1.154-3.924a1.998 1.998 0 0 1 1.616-.866c.404 0 1.096.115 1.27 1.039.115.635-.058 1.154-.519 1.731-.808 1.039-2.251 1.673-3.347 2.02zm8.887 20.948c0 .404-.346.75-.75.75h-5.367V16.433h6.117v12.061zm1.731-13.792h-7.848V9.277h7.098c.404 0 .75.346.75.75v4.674z"/></svg>