<?xml version="1.0" encoding="utf-8"?>
<!-- Generator: Adobe Illustrator 26.0.3, SVG Export Plug-In . SVG Version: 6.00 Build 0)  -->
<svg version="1.1" xmlns="http://www.w3.org/2000/svg" xmlns:xlink="http://www.w3.org/1999/xlink" x="0px" y="0px"
	 viewBox="0 0 30 30" style="enable-background:new 0 0 30 30;" xml:space="preserve">
<style type="text/css">
	.st0{fill:none;stroke:#000000;stroke-width:0.75;stroke-miterlimit:10;}
	.st1{fill:none;stroke:#000000;stroke-width:0.75;stroke-linecap:round;stroke-miterlimit:10;}
	.st2{fill:#231F20;}
</style>
<g id="Layer_1">
	<g id="icon">
	</g>
	<g id="Icon_KEYLINE">
	</g>
	<g>
		<g>
			<g>
				<path class="st0" d="M10.9,11.1l0-6.2c0-0.4,0.3-0.7,0.7-0.7l13.1,0c0.4,0,0.7,0.3,0.7,0.7l0,17.5c0,0.4-0.3,0.7-0.7,0.7
					l-11.2,0"/>
			</g>
			<line class="st0" x1="25.5" y1="19.5" x2="13.5" y2="19.5"/>
			<circle cx="18.1" cy="21.3" r="0.4"/>
			<line class="st1" x1="17.1" y1="6" x2="19.2" y2="6"/>
		</g>
		<g>
			<g>
				<g>
					<path class="st0" d="M12.8,25.6H5.3c-0.4,0-0.7-0.3-0.7-0.7V11.8c0-0.4,0.3-0.7,0.7-0.7h7.5c0.4,0,0.7,0.3,0.7,0.7v13.1
						C13.5,25.3,13.2,25.6,12.8,25.6z"/>
					<circle class="st2" cx="9.1" cy="23.8" r="0.4"/>
					<line class="st1" x1="8.3" y1="12.9" x2="9.8" y2="12.9"/>
				</g>
			</g>
		</g>
	</g>
	<g id="Layer_4">
	</g>
</g>
<g id="Isolation_Mode">
</g>
</svg>
