<?xml version="1.0" encoding="UTF-8"?>
<svg width="113px" height="41px" viewBox="0 0 113 41" version="1.1" xmlns="http://www.w3.org/2000/svg" xmlns:xlink="http://www.w3.org/1999/xlink">
    <title>99816ED6-2BBF-4809-898E-A8C09B9EDDE9</title>
    <defs>
        <polygon id="path-1" points="0.100666667 0 6.56094444 0 6.56094444 6.46269444 0.100666667 6.46269444"></polygon>
        <polygon id="path-3" points="0 40 111.920556 40 111.920556 0 0 0"></polygon>
    </defs>
    <g id="Page-1" stroke="none" stroke-width="1" fill="none" fill-rule="evenodd">
        <g id="Splitter---Landing-(1920)" transform="translate(-417.000000, -1010.000000)">
            <g id="by-brand" transform="translate(351.000000, 923.750000)">
                <g id="thinkpad" transform="translate(0.000000, 57.000000)">
                    <g id="thinkpad-logo" transform="translate(66.500000, 30.000000)">
                        <g id="Group-3" transform="translate(31.111111, 0.000000)">
                            <mask id="mask-2" fill="white">
                                <use xlink:href="#path-1"></use>
                            </mask>
                            <g id="Clip-2"></g>
                            <path d="M6.56094444,3.22991667 C6.56094444,5.01519444 5.11677778,6.46269444 3.32955556,6.46269444 C1.54483333,6.46269444 0.100666667,5.01519444 0.100666667,3.22991667 C0.100666667,1.44491667 1.54483333,-8.33333333e-05 3.32955556,-8.33333333e-05 C5.11677778,-8.33333333e-05 6.56094444,1.44491667 6.56094444,3.22991667" id="Fill-1" fill="#ED2524" mask="url(#mask-2)"></path>
                        </g>
                        <path d="M82.2320556,16.4468889 C82.2320556,19.5621667 79.4506667,22.7649444 76.2978889,22.7649444 L74.8128889,22.7649444 L74.8128889,39.6071667 L69.4584444,39.6071667 L69.4584444,0.833277778 L76.2978889,0.833277778 C79.8701111,0.833277778 82.1853889,3.72383333 82.2320556,6.47911111 L82.2320556,16.4468889 Z M74.8184444,18.4791111 C76.0265,18.4791111 77.3492778,18.4791111 77.3492778,16.8971667 L77.3492778,8.54161111 C77.3492778,6.11661111 76.9603889,5.178 75.5592778,5.178 L74.8184444,5.178 L74.8184444,18.4791111 Z" id="Fill-4" fill="#000000"></path>
                        <path d="M96.7600556,39.6177222 L92.0058889,39.6177222 C91.6806111,38.9632778 91.7022778,38.2005 91.7022778,37.4824444 L91.3875556,37.4824444 C90.2458889,39.3307778 89.327,39.9999444 87.3822778,39.9999444 C85.0150556,39.9999444 83.8608889,38.7449444 83.8608889,36.3993889 L83.8608889,25.9302222 C83.8608889,19.8477222 91.5542222,22.7649444 91.5542222,15.0093889 C91.5542222,13.9774444 91.7958889,11.5838333 90.3631111,11.5838333 C88.8117222,11.5838333 88.9600556,13.5674444 88.9164444,14.9341111 L88.9164444,19.3518889 L83.8745,19.3518889 L83.8745,13.2771667 C83.8745,9.98133333 86.3536667,8.04133333 90.3092222,8.04133333 C94.267,8.04133333 96.7600556,10.0605 96.7600556,13.2771667 L96.7600556,39.6177222 Z M91.7100556,23.2174444 C90.1917222,24.0385556 88.8661667,24.9449444 88.8522778,26.4952222 L88.8522778,34.6018889 C88.9572778,35.298 89.4000556,35.7696667 90.2314444,35.7696667 C90.9408889,35.7696667 91.7156111,35.1788333 91.7100556,34.3905 L91.7100556,23.2174444 Z" id="Fill-6" fill="#000000"></path>
                        <path d="M111.920361,39.599 L106.962583,39.599 L106.962583,37.7262222 L106.632583,37.7262222 C105.825083,38.8915 104.196194,39.9834444 102.910639,39.9834444 C100.865361,39.9834444 99.0809167,38.8915 99.1375833,36.2831667 L99.1375833,11.4178889 C99.1375833,9.16733333 100.914806,7.99594444 102.910639,7.99594444 C104.582306,7.99594444 106.082028,9.16122222 106.835361,10.3817778 L106.962583,10.3817778 L106.962583,0.730944444 L111.920361,0.730944444 L111.920361,39.599 Z M104.08675,33.8237222 C104.072861,35.2901111 104.702861,35.7626111 105.438694,35.7626111 C106.238139,35.7626111 106.897861,35.4906667 106.957306,33.8237222 L106.957306,14.1273333 C106.897861,12.4628889 106.178694,12.2770556 105.438694,12.2770556 C104.536472,12.2770556 104.08675,12.8695556 104.08675,14.0981667 L104.08675,33.8237222 Z" id="Fill-8" fill="#000000"></path>
                        <polygon id="Fill-10" fill="#000000" points="15.5993056 0.68325 15.5993056 5.56241667 10.57125 5.56241667 10.57125 39.49325 5.08236111 39.49325 5.08236111 5.56241667 0.000138888889 5.56241667 0.000138888889 0.68325"></polygon>
                        <path d="M21.7258611,10.259 L21.9358611,10.259 C22.6891944,8.59233333 24.2611389,8.01177778 25.6605833,8.01177778 C29.0644722,8.01177778 29.6064167,9.74622222 29.6064167,13.0253889 L29.6064167,39.5378889 L24.6336389,39.5378889 L24.6336389,14.084 C24.6336389,13.0226111 24.38725,12.2417778 23.2555833,12.2417778 C21.9978056,12.2417778 21.7775278,13.2070556 21.7775278,14.0331667 L21.7775278,39.5378889 L16.80475,39.5378889 L16.80475,0.612333333 L21.7258611,0.612333333 L21.7258611,10.259 Z" id="Fill-12" fill="#000000"></path>
                        <mask id="mask-4" fill="white">
                            <use xlink:href="#path-3"></use>
                        </mask>
                        <g id="Clip-15"></g>
                        <polygon id="Fill-14" fill="#000000" mask="url(#mask-4)" points="31.9705556 39.5661111 36.9133333 39.5661111 36.9133333 8.40638889 31.9705556 8.40638889"></polygon>
                        <path d="M39.1911389,8.44069444 L44.1205833,8.44069444 L44.1205833,10.27375 L44.3250278,10.27375 C45.0066944,8.84736111 46.5541944,8.07597222 48.0536389,8.07597222 C52.0430833,8.07597222 51.9994824,10.29875 51.9994824,13.5770833 L51.9994824,39.5934722 L47.0191944,39.5934722 L47.0191944,14.3431944 C47.0191944,13.3490278 46.8491944,12.3079167 45.7044722,12.3079167 C44.17475,12.3079167 44.1069722,13.4695833 44.1069722,14.3431944 L44.1069722,39.5934722 L39.1911389,39.5934722 L39.1911389,8.44069444 Z" id="Fill-16" fill="#000000" mask="url(#mask-4)"></path>
                        <polygon id="Fill-17" fill="#000000" mask="url(#mask-4)" points="54.34225 39.6044167 54.34225 0.717194444 59.3075278 0.717194444 59.3075278 22.8094167 59.7828056 22.8094167 62.6330833 8.45636111 67.6080833 8.45636111 64.6205833 22.5435833 67.7716944 39.6044167 62.6844722 39.6044167 59.7828056 23.1521944 59.3075278 23.1521944 59.3075278 39.6044167"></polygon>
                    </g>
                </g>
            </g>
        </g>
    </g>
</svg>