<?xml version="1.0" encoding="UTF-8"?>
<svg width="129px" height="41px" viewBox="0 0 129 41" version="1.1" xmlns="http://www.w3.org/2000/svg" xmlns:xlink="http://www.w3.org/1999/xlink">
    <title>9D62468C-DD62-41C3-9403-A8890CDA7A0E</title>
    <defs>
        <polygon id="path-1" points="0.144344828 0 6.60905 0 6.60905 6.47136111 0.144344828 6.47136111"></polygon>
        <polygon id="path-3" points="0 40 128.552948 40 128.552948 0 0 0"></polygon>
    </defs>
    <g id="Page-1" stroke="none" stroke-width="1" fill="none" fill-rule="evenodd">
        <g id="Splitter---Landing-(1920)" transform="translate(-669.000000, -1010.000000)">
            <g id="by-brand" transform="translate(351.000000, 923.750000)">
                <g id="thinkbook" transform="translate(260.000000, 57.000000)">
                    <g id="thinkbook-logo" transform="translate(58.100000, 30.000000)">
                        <polygon id="Fill-1" fill="#000000" points="0 0.8 0 5.72833301 5.21288854 5.72833301 5.21288854 40 10.8428764 40 10.8428764 5.72833301 16 5.72833301 16 0.8"></polygon>
                        <g id="Group-15">
                            <path d="M21.7412734,10.2732778 L21.9514062,10.2732778 C22.7053303,8.60411111 24.2784114,8.02272222 25.6788338,8.02272222 C29.0850941,8.02272222 29.6274976,9.75994444 29.6274976,13.0438333 L29.6274976,39.5932778 L24.6509321,39.5932778 L24.6509321,14.1035556 C24.6509321,13.0410556 24.4044355,12.2585556 23.2721614,12.2585556 C22.0135855,12.2585556 21.7929045,13.2255 21.7929045,14.0527222 L21.7929045,39.5932778 L16.8168941,39.5932778 L16.8168941,0.613277778 L21.7412734,0.613277778 L21.7412734,10.2732778 Z" id="Fill-2" fill="#000000"></path>
                            <g id="Group-6" transform="translate(31.089655, 0.000000)">
                                <mask id="mask-2" fill="white">
                                    <use xlink:href="#path-1"></use>
                                </mask>
                                <g id="Clip-5"></g>
                                <path d="M6.60905,3.23441667 C6.60905,5.02219444 5.16365862,6.47136111 3.37572586,6.47136111 C1.58945862,6.47136111 0.144344828,5.02219444 0.144344828,3.23441667 C0.144344828,1.44691667 1.58945862,-2.77777778e-05 3.37572586,-2.77777778e-05 C5.16365862,-2.77777778e-05 6.60905,1.44691667 6.60905,3.23441667" id="Fill-4" fill="#ED2524" mask="url(#mask-2)"></path>
                            </g>
                            <mask id="mask-4" fill="white">
                                <use xlink:href="#path-3"></use>
                            </mask>
                            <g id="Clip-8"></g>
                            <polygon id="Fill-7" fill="#000000" mask="url(#mask-4)" points="31.9931983 39.6216667 36.9395069 39.6216667 36.9395069 8.41833333 31.9931983 8.41833333"></polygon>
                            <path d="M39.2190448,8.45252778 L44.1520293,8.45252778 L44.1520293,10.2880833 L44.3566103,10.2880833 C45.0386397,8.85975 46.5872931,8.08725 48.0879241,8.08725 C52.080169,8.08725 52.0363206,10.3133611 52.0363206,13.5964167 L52.0363206,39.6489167 L47.0525276,39.6489167 L47.0525276,14.3630833 C47.0525276,13.3675278 46.8823672,12.3250278 45.736769,12.3250278 C44.2061586,12.3250278 44.1384276,13.4883611 44.1384276,14.3630833 L44.1384276,39.6489167 L39.2190448,39.6489167 L39.2190448,8.45252778 Z" id="Fill-9" fill="#000000" mask="url(#mask-4)"></path>
                            <polygon id="Fill-10" fill="#000000" mask="url(#mask-4)" points="54.3807202 39.6599444 54.3807202 0.718277778 59.3495133 0.718277778 59.3495133 22.8413333 59.8250184 22.8413333 62.6772167 8.46827778 67.6560029 8.46827778 64.6663995 22.5752222 67.8195012 39.6599444 62.7288478 39.6599444 59.8250184 23.1846667 59.3495133 23.1846667 59.3495133 39.6599444"></polygon>
                            <path d="M74.8114814,35.0280556 L74.8661659,35.0280556 C76.3404262,35.0280556 76.8864383,34.6455556 76.8864383,33.5527778 L76.8864383,32.8425 L76.8864383,23.3358333 C76.8864383,21.9155556 76.4495176,21.4236111 75.1937176,21.4236111 L74.8114814,21.4236111 L74.8114814,35.0280556 Z M74.8114814,16.7797222 L74.8661659,16.7797222 C76.3404262,16.7797222 76.8864383,16.4516667 76.8864383,15.3047222 L76.8864383,14.5941667 L76.8864383,7.3275 C76.8864383,5.90722222 76.4495176,5.41555556 75.1937176,5.41555556 L74.8114814,5.41555556 L74.8114814,16.7797222 Z M69.078771,0.716666667 L75.0296641,0.716666667 C76.9955297,0.716666667 77.5415417,0.771388889 78.5241969,1.09888889 C79.6706279,1.48166667 80.7629297,2.35583333 81.4180331,3.39388889 C82.0731366,4.48666667 82.4550952,5.8525 82.4550952,7.81944444 L82.4550952,13.3919444 L82.4550952,13.5561111 L82.4550952,13.7202778 C82.4550952,16.9436111 81.47244,18.4188889 79.1795779,19.1291667 C81.47244,19.7847222 82.4550952,21.26 82.4550952,24.5380556 L82.4550952,32.5147222 C82.4550952,34.4816667 82.0731366,35.9022222 81.4180331,36.9947222 C80.7629297,38.0327778 79.6706279,38.9072222 78.5241969,39.235 C77.5415417,39.5625 76.9955297,39.6172222 75.0296641,39.6172222 L69.078771,39.6172222 L69.078771,0.716666667 Z" id="Fill-11" fill="#000000" mask="url(#mask-4)"></path>
                            <path d="M92.3924038,13.3375 C92.3924038,11.9172222 91.9007986,11.8080556 91.1366038,11.8080556 C90.3721314,11.8080556 89.8808038,11.9172222 89.8808038,13.3375 L89.8808038,34.6455556 C89.8808038,36.0658333 90.3721314,36.1755556 91.1366038,36.1755556 C91.9007986,36.1755556 92.3924038,36.0658333 92.3924038,34.6455556 L92.3924038,13.3375 Z M97.633509,34.755 C97.633509,37.9786111 95.121909,40 91.1366038,40 C87.1507434,40 84.6391434,37.9786111 84.6391434,34.755 L84.6391434,13.2283333 C84.6391434,10.005 87.1507434,7.98333333 91.1366038,7.98333333 C95.121909,7.98333333 97.633509,10.005 97.633509,13.2283333 L97.633509,34.755 Z" id="Fill-12" fill="#000000" mask="url(#mask-4)"></path>
                            <path d="M107.308582,13.3375 C107.308582,11.9172222 106.816977,11.8080556 106.053059,11.8080556 C105.288309,11.8080556 104.796982,11.9172222 104.796982,13.3375 L104.796982,34.6455556 C104.796982,36.0658333 105.288309,36.1755556 106.053059,36.1755556 C106.816977,36.1755556 107.308582,36.0658333 107.308582,34.6455556 L107.308582,13.3375 Z M112.549965,34.755 C112.549965,37.9786111 110.038365,40 106.053059,40 C102.066922,40 99.5553216,37.9786111 99.5553216,34.755 L99.5553216,13.2283333 C99.5553216,10.005 102.066922,7.98333333 106.053059,7.98333333 C110.038365,7.98333333 112.549965,10.005 112.549965,13.2283333 L112.549965,34.755 Z" id="Fill-13" fill="#000000" mask="url(#mask-4)"></path>
                            <polygon id="Fill-14" fill="#000000" mask="url(#mask-4)" points="114.848684 39.6173333 114.848684 0.716777778 120.090344 0.716777778 120.090344 22.7351111 120.308527 22.7351111 123.147679 8.36566667 128.389061 8.36566667 125.386411 22.4617778 128.552837 39.6173333 123.202363 39.6173333 120.308527 23.1720556 120.090344 23.1720556 120.090344 39.6173333"></polygon>
                        </g>
                    </g>
                </g>
            </g>
        </g>
    </g>
</svg>