<?xml version="1.0" encoding="utf-8"?>
<!-- Generator: Adobe Illustrator 16.0.0, SVG Export Plug-In . SVG Version: 6.00 Build 0)  -->
<!DOCTYPE svg PUBLIC "-//W3C//DTD SVG 1.1//EN" "http://www.w3.org/Graphics/SVG/1.1/DTD/svg11.dtd">
<svg version="1.1" id="图层_1" xmlns="http://www.w3.org/2000/svg" xmlns:xlink="http://www.w3.org/1999/xlink" x="0px" y="0px"
	 width="68px" height="68px" viewBox="0 0 68 68" enable-background="new 0 0 68 68" xml:space="preserve">
<g>
	<g>
		<g>
			<g>
				<g>
					<path d="M60,13v36H8V13 M6,11v40h56V11H6z"/>
					<path d="M64,51v2l-4,2H8l-4-1.949V51 M2,49v5.229L8,57h52l6-3v-5H2z"/>
				</g>
			</g>
		</g>
		<g>
			<g>
				<g>
					<path d="M47.028,45.176c-2.094,0-3.664-1.104-5.481-2.384c-0.494-0.348-1.015-0.714-1.58-1.082
						c-2.84-1.846-4.108-2.67-5.967-2.67c-1.862,0-3.132,0.826-5.915,2.635c-0.621,0.403-1.142,0.771-1.636,1.119
						c-1.816,1.278-3.384,2.382-5.478,2.382c-3.344,0-5.343-3.236-5.343-6.364c0-7.538,2.734-15.593,10.408-15.593
						c2.393,0,4.158,0.771,5.576,1.39c0.918,0.401,1.711,0.748,2.387,0.748c0.675,0,1.467-0.346,2.385-0.747
						c1.418-0.62,3.183-1.391,5.576-1.391c7.674,0,10.408,8.055,10.408,15.593C52.37,41.94,50.372,45.176,47.028,45.176z
						 M34.001,37.04c2.451,0,4.066,1.049,6.997,2.955c0.647,0.421,1.188,0.801,1.701,1.162c1.666,1.172,2.869,2.02,4.33,2.02
						c2.305,0,3.342-2.552,3.342-4.364c0-8.512-3.143-13.593-8.408-13.593c-1.975,0-3.463,0.65-4.775,1.223
						c-1.077,0.47-2.093,0.915-3.186,0.915c-1.094,0-2.111-0.444-3.188-0.915c-1.312-0.573-2.8-1.223-4.775-1.223
						c-5.265,0-8.408,5.082-8.408,13.593c0,1.812,1.037,4.364,3.343,4.364c1.46,0,2.662-0.846,4.326-2.018
						c0.513-0.361,1.055-0.743,1.644-1.125C29.93,38.091,31.546,37.04,34.001,37.04z"/>
				</g>
				<g>
					<rect x="22.13" y="32" width="8" height="2"/>
				</g>
				<g>
					<rect x="25.13" y="29" width="2" height="8"/>
				</g>
			</g>
		</g>
		<circle cx="42.167" cy="30.5" r="1"/>
		<circle cx="44.167" cy="32.5" r="1"/>
		<circle cx="40.167" cy="32.5" r="1"/>
		<circle cx="42.167" cy="34.5" r="1"/>
		<g>
			<path d="M35.165,26.062l-1.996-0.125C33.174,25.848,33.847,17,44.167,17v2C35.704,19,35.183,25.774,35.165,26.062z"/>
		</g>
	</g>
</g>
</svg>
