<?xml version="1.0" encoding="utf-8"?>
<!-- Generator: Adobe Illustrator 16.0.0, SVG Export Plug-In . SVG Version: 6.00 Build 0)  -->
<!DOCTYPE svg PUBLIC "-//W3C//DTD SVG 1.1//EN" "http://www.w3.org/Graphics/SVG/1.1/DTD/svg11.dtd">
<svg version="1.1" id="图层_1" xmlns="http://www.w3.org/2000/svg" xmlns:xlink="http://www.w3.org/1999/xlink" x="0px" y="0px"
	 width="68px" height="68px" viewBox="0 0 68 68" enable-background="new 0 0 68 68" xml:space="preserve">
<g>
	<g>
		<g>
			<path fill="#231815" d="M55.193,17l4.593,45H6.214l4.592-45H55.193 M57,15H9L4,64h58L57,15L57,15z"/>
		</g>
		<g>
			<path fill="#231815" d="M25,44h-2l-4.982-9.047L18,44h-2V32h2.5l4.5,8v-8h2V44z"/>
			<path fill="#231815" d="M35,44h-8V32h8.066v2.006L29,34v3h6v2h-6v3h6V44z"/>
			<path fill="#231815" d="M36,32h2l1.781,9.307C39.848,40.973,41.5,32,41.5,32h3c0,0,1.531,8.915,1.531,9.361h0.051L48,32h2
				l-2.5,12H45l-2-10l-2,10h-2.5L36,32z"/>
		</g>
		<g>
			<path fill="#231815" d="M20.646,20.83h-1.99v-4.729C18.656,9.429,25.091,4,33,4s14.344,5.429,14.344,12.102v4.729h-2v-4.729
				C45.344,10.531,39.807,6,33,6c-6.807,0-12.344,4.531-12.344,10.102v3.729L20.646,20.83z"/>
		</g>
	</g>
</g>
</svg>
