<svg id="图层_1" data-name="图层 1" xmlns="http://www.w3.org/2000/svg" viewBox="0 0 64 64"><path d="M48.37,12.62C46.53,7.44,40.27,4.05,32.43,4h-.19c-6.7,0-14.39,2.65-16.61,8.6l-.06.17v30.8a16.43,16.43,0,0,0,32.86,0V12.78ZM32,20.87a2.3,2.3,0,0,1-2.38-2.37V13.68a2.38,2.38,0,0,1,4.76,0V18.5A2.3,2.3,0,0,1,32,20.87Zm14.43,22.7a14.43,14.43,0,0,1-28.86,0V13.14C19.4,8.53,25.38,6.35,31,6V9.42a4.25,4.25,0,0,0-3.38,4.26V18.5A4.26,4.26,0,0,0,31,22.76v10h2v-10a4.26,4.26,0,0,0,3.38-4.26V13.68A4.25,4.25,0,0,0,33,9.42V6c5.17.17,11.53,2.11,13.43,7.12Z"/></svg>