<?xml version="1.0" encoding="utf-8"?>
<!-- Generator: Adobe Illustrator 16.0.0, SVG Export Plug-In . SVG Version: 6.00 Build 0)  -->
<!DOCTYPE svg PUBLIC "-//W3C//DTD SVG 1.1//EN" "http://www.w3.org/Graphics/SVG/1.1/DTD/svg11.dtd">
<svg version="1.1" id="图层_1" xmlns="http://www.w3.org/2000/svg" xmlns:xlink="http://www.w3.org/1999/xlink" x="0px" y="0px"
	 width="68px" height="68px" viewBox="0 0 68 68" enable-background="new 0 0 68 68" xml:space="preserve">
<g>
	<g>
		<g>
			<polygon points="57,56.062 11,56.062 11,12.062 37,12.062 37,14.062 13,14.062 13,54.062 55,54.062 55,30.062 57,30.062 			"/>
		</g>
		<g>
			<path d="M51.162,9.828l7.07,7.071l-20.83,20.83l-9.596,2.526l2.525-9.597L51.162,9.828 M51.162,7L28.535,29.627L25,43.062
				l13.436-3.537l22.627-22.626L51.162,7L51.162,7z"/>
			<rect x="43.457" y="16.605" transform="matrix(-0.7071 -0.7071 0.7071 -0.7071 73.6864 65.7334)" width="14" height="2"/>
			<rect x="27.689" y="32.869" transform="matrix(-0.7071 -0.7071 0.7071 -0.7071 34.4162 81.9944)" width="13.001" height="2"/>
		</g>
	</g>
</g>
</svg>
